PathFileType  4	(X/Y/Z) C:\Users\antoi\Documents\MyRepositories\mobilecap\ResultsAnalysis
DataRate	CameraRate	NumFrames	NumMarkers	Units	OrigDataRate	OrigDataStartFrame	OrigNumFrames
100.0	100.0	6	55	mm	100.0	1	781
Frame#	Time	r_knee			r_shank_antsup			r_ankle			r_calc			r_5meta			r_toe			L_knee			L_shank_antsup			L_ankle			L_calc			L_5meta			L_toe			r_mknee			r_mankle			L_mknee			L_mankle			r_sh2			r_sh3			r_sh4			L_sh2			L_sh3			r_thigh1			r_thigh2			r_thigh3			r_thigh4			r_thigh5			L_thigh1			L_thigh2			L_thigh3			L_thigh4			r.ASIS			r.PSIS			L.ASIS			L.PSIS			C7			R_Shoulder			L_Shoulder			R_Sternum			L_Sternum			R_humerus			R_elbow_med			R_elbow_lat			R_forearm			R_wrist_radius			R_wrist_ulna			L_humerus			L_elbow_med			L_elbow_lat			L_forearm			L_wrist_radius			L_wrist_ulna			R_HJC			L_HJC			R_HJC_reg			L_HJC_reg			
		X1	Y1	Z1	X2	Y2	Z2	X3	Y3	Z3	X4	Y4	Z4	X5	Y5	Z5	X6	Y6	Z6	X7	Y7	Z7	X8	Y8	Z8	X9	Y9	Z9	X10	Y10	Z10	X11	Y11	Z11	X12	Y12	Z12	X13	Y13	Z13	X14	Y14	Z14	X15	Y15	Z15	X16	Y16	Z16	X17	Y17	Z17	X18	Y18	Z18	X19	Y19	Z19	X20	Y20	Z20	X21	Y21	Z21	X22	Y22	Z22	X23	Y23	Z23	X24	Y24	Z24	X25	Y25	Z25	X26	Y26	Z26	X27	Y27	Z27	X28	Y28	Z28	X29	Y29	Z29	X30	Y30	Z30	X31	Y31	Z31	X32	Y32	Z32	X33	Y33	Z33	X34	Y34	Z34	X35	Y35	Z35	X36	Y36	Z36	X37	Y37	Z37	X38	Y38	Z38	X39	Y39	Z39	X40	Y40	Z40	X41	Y41	Z41	X42	Y42	Z42	X43	Y43	Z43	X44	Y44	Z44	X45	Y45	Z45	X46	Y46	Z46	X47	Y47	Z47	X48	Y48	Z48	X49	Y49	Z49	X50	Y50	Z50	X51	Y51	Z51	X52	Y52	Z52	X53	Y53	Z53	X54	Y54	Z54	X55	Y55	Z55	

1	0.00000000	-259.95160	471.82675	-727.49016	-255.36106	400.46697	-699.88449	-273.54489	92.79409	-719.33876	-339.92234	52.85257	-757.54240	-170.40013	44.16549	-687.00955	-128.09741	62.84663	-743.50908	-280.67097	457.26675	-1060.36987	-262.42065	402.78513	-1072.58350	-283.28073	91.96996	-1080.66956	-348.77960	55.43652	-1032.75598	-191.71701	40.12552	-1116.05518	-139.28076	62.30756	-1063.88465	-255.09689	454.27038	-843.86936	-264.51084	94.38256	-799.85171	-255.76910	443.77170	-955.97455	-264.12861	97.52274	-998.48845	-256.71261	290.55013	-690.37409	-329.54933	401.08582	-714.51943	-335.91449	282.72751	-708.52355	-350.43610	408.59604	-1085.92346	-343.36201	287.73648	-1098.85949	-164.64529	771.57629	-753.97656	-168.76134	660.67040	-739.79987	-218.87410	646.72865	-698.10845	-260.64761	784.63407	-698.51296	-270.10036	666.02022	-701.99547	-172.81439	735.15076	-1065.73596	-187.26561	595.11267	-1064.13501	-288.29854	743.68861	-1092.88452	-293.01542	602.14362	-1083.47228	-167.72983	920.51365	-772.37990	-347.71681	935.44247	-856.72106	-155.80538	902.12395	-1031.31702	-345.99309	923.67244	-963.54942	-335.02269	1387.02747	-903.24902	-270.12281	1346.34657	-744.49352	-263.02230	1348.76499	-1067.86929	-204.69940	1325.31701	-882.92812	-205.76018	1325.80737	-926.24268	-243.49426	1106.02343	-667.92365	-273.64359	1002.05365	-723.82666	-270.33877	1021.01880	-654.76262	-215.39381	914.71161	-623.65997	-186.25828	798.00482	-611.66272	-228.93088	790.33789	-608.57750	-215.03134	1223.14441	-1117.89660	-237.04435	1011.09662	-1074.76233	-242.16098	1018.81300	-1135.59351	-193.32881	929.30504	-1175.80126	-167.12987	804.88732	-1180.61228	-202.71660	793.81525	-1181.26208	-233.34848	844.10437	-799.40984	-221.41835	832.25039	-998.99488	-229.05515	840.97946	-801.55445	-226.30476	822.19910	-972.01055	
2	0.01000000	-259.93675	471.83496	-727.47922	-255.29485	400.37416	-699.82932	-273.51633	92.73995	-719.32089	-339.93226	52.83155	-757.54243	-170.36394	44.12617	-686.94074	-128.07335	62.88178	-743.47576	-280.65292	457.27049	-1060.36169	-262.36663	402.73617	-1072.58455	-283.18682	92.06124	-1080.89192	-348.76541	55.45406	-1032.76749	-191.71086	40.11094	-1116.05572	-139.26400	62.29355	-1063.92449	-254.94743	454.40517	-843.83495	-264.64168	94.44260	-799.79236	-255.76290	443.77867	-955.96326	-264.11099	97.49720	-998.49344	-256.68922	290.57929	-690.36623	-329.56007	401.06316	-714.43784	-335.91803	282.70613	-708.43473	-350.41853	408.64485	-1086.00846	-343.30266	287.75998	-1098.91235	-164.66396	771.58710	-753.96599	-168.78791	660.63168	-739.74255	-218.92308	646.73098	-698.10928	-260.49085	784.36728	-698.69553	-270.13416	666.08417	-701.97066	-172.80021	735.15930	-1065.70257	-187.26650	595.12395	-1064.12884	-288.31637	743.66445	-1092.86840	-292.99610	602.14580	-1083.49552	-167.81502	920.41046	-772.46542	-347.91431	935.38279	-856.72024	-155.84819	902.09542	-1031.26464	-346.30076	923.67654	-963.71581	-335.00945	1386.99124	-903.18531	-270.11685	1346.34678	-744.48772	-263.08379	1349.21454	-1068.41092	-204.70750	1325.32165	-882.86308	-205.80515	1325.79980	-926.22824	-243.54995	1105.98825	-667.92129	-273.73701	1002.06773	-723.89234	-270.35546	1020.96167	-654.75112	-215.46460	914.67747	-623.65396	-186.28016	797.99728	-611.64256	-228.99996	790.29420	-608.59138	-215.12718	1223.16792	-1117.89769	-237.08191	1011.11084	-1074.78470	-242.27603	1018.84046	-1135.66054	-193.50332	929.43697	-1176.03546	-167.31329	804.90508	-1180.74940	-202.91829	793.79206	-1181.19424	-233.53319	844.02185	-799.47990	-221.57072	832.22906	-999.06662	-229.04894	840.87607	-801.60624	-226.47783	822.23467	-971.98545	
3	0.02000000	-259.86634	471.81088	-727.55503	-255.27170	400.33342	-699.78102	-273.49342	92.68549	-719.28157	-339.94204	52.80874	-757.53053	-170.38447	44.09810	-686.92622	-128.06780	62.85877	-743.42196	-280.63567	457.26400	-1060.36090	-262.32516	402.72545	-1072.59319	-283.15437	92.11375	-1080.98782	-348.76215	55.45245	-1032.77669	-191.72963	40.13126	-1116.08205	-139.24764	62.27531	-1063.93357	-254.88395	454.44904	-843.82535	-264.60024	94.41394	-799.82268	-255.77078	443.78007	-955.96725	-264.10726	97.48197	-998.49519	-256.64488	290.54078	-690.38972	-329.51932	401.10245	-714.47584	-335.86414	282.69453	-708.35851	-350.38253	408.64880	-1086.03895	-343.26018	287.75130	-1098.99296	-164.68310	771.59791	-753.95882	-168.81156	660.61654	-739.71307	-218.94980	646.70213	-698.10427	-260.68840	784.32945	-698.61306	-270.17697	665.97114	-701.98987	-172.88627	735.14458	-1065.75019	-187.26644	595.13408	-1064.12430	-288.32149	743.65950	-1092.87031	-292.98956	602.13909	-1083.50229	-167.85282	920.36347	-772.45143	-347.98341	935.30670	-856.70845	-155.89396	902.07469	-1031.18853	-346.85311	923.74224	-964.03429	-335.02834	1387.00319	-903.13217	-270.13590	1346.37653	-744.52929	-263.14758	1349.38294	-1068.60123	-204.74987	1325.32338	-882.82260	-205.85445	1325.78718	-926.21642	-243.56826	1105.95946	-667.90177	-273.79771	1002.02935	-723.87779	-270.38347	1020.90928	-654.73310	-215.53157	914.57153	-623.64215	-186.30493	797.96070	-611.62670	-229.00453	790.22269	-608.55517	-215.24766	1223.17369	-1117.88085	-237.12472	1011.12307	-1074.79881	-242.40683	1018.87552	-1135.74525	-193.63547	929.47840	-1176.15271	-167.47277	804.91036	-1180.84384	-203.09905	793.79070	-1181.18056	-233.72944	843.97530	-799.54949	-221.74423	832.22826	-999.13755	-228.68535	840.69344	-801.39557	-226.88899	822.33452	-971.77213	
4	0.03000000	-259.80388	471.82284	-727.62353	-255.30345	400.29440	-699.76058	-273.50626	92.66546	-719.27282	-339.93827	52.79670	-757.53288	-170.40521	44.07236	-686.92566	-128.07114	62.81222	-743.40054	-280.61903	457.25170	-1060.36442	-262.30709	402.76408	-1072.63267	-283.16348	92.08912	-1080.94121	-348.77079	55.43188	-1032.78428	-191.74730	40.14624	-1116.10333	-139.24848	62.26093	-1063.91947	-254.88058	454.43387	-843.82990	-264.51361	94.35433	-799.87641	-255.79516	443.77795	-955.98496	-264.11046	97.47861	-998.49633	-256.59115	290.46021	-690.43222	-329.47460	401.13855	-714.54238	-335.81738	282.68789	-708.36840	-350.34561	408.63105	-1086.03987	-343.22192	287.74134	-1099.05505	-164.70177	771.60104	-753.95350	-168.82190	660.62960	-739.71832	-218.97462	646.65930	-698.08548	-260.83931	784.32050	-698.56776	-270.17545	665.88918	-701.97602	-173.02558	735.13952	-1065.82896	-187.26683	595.14198	-1064.12348	-288.33101	743.66370	-1092.87207	-292.99164	602.12488	-1083.49439	-167.88384	920.35357	-772.34343	-347.96479	935.26689	-856.71517	-155.93935	902.08819	-1031.17067	-347.34332	923.77336	-964.26325	-335.04955	1387.03191	-903.05456	-270.27985	1346.25728	-744.44984	-263.21955	1349.35838	-1068.55181	-204.81333	1325.31302	-882.81041	-205.90754	1325.76661	-926.20171	-243.57446	1105.91077	-667.87546	-273.82499	1001.97950	-723.83682	-270.40228	1020.87398	-654.69931	-215.58263	914.45313	-623.64005	-186.34987	797.88802	-611.59477	-229.01006	790.15009	-608.51792	-215.37412	1223.17130	-1117.87829	-237.24625	1011.15829	-1074.81237	-242.53826	1018.89868	-1135.80198	-193.75200	929.47816	-1176.21687	-167.59069	804.87556	-1180.82849	-203.28158	793.83061	-1181.28054	-233.86594	843.95991	-799.58718	-221.87375	832.24195	-999.17653	-228.32410	840.61396	-801.04707	-227.34033	822.39688	-971.50657	
5	0.04000000	-259.80727	471.91931	-727.59825	-255.30251	400.24362	-699.74271	-273.53406	92.68031	-719.29634	-339.92111	52.81193	-757.57020	-170.36903	44.05349	-686.90092	-128.07993	62.79712	-743.44866	-280.60964	457.24367	-1060.36354	-262.31206	402.80106	-1072.65751	-283.17708	92.01798	-1080.84900	-348.77398	55.42227	-1032.79626	-191.73576	40.11498	-1116.08924	-139.26479	62.26163	-1063.91352	-254.88660	454.42536	-843.83559	-264.49850	94.32696	-799.89253	-255.81352	443.77856	-955.99477	-264.10963	97.49244	-998.50165	-256.56855	290.42604	-690.44950	-329.47032	401.10503	-714.53817	-335.81302	282.68648	-708.41268	-350.33020	408.62108	-1086.03341	-343.18883	287.76126	-1099.06024	-164.71899	771.59463	-753.94817	-168.82203	660.65068	-739.73481	-218.96551	646.67155	-698.06035	-260.73903	784.05978	-698.72131	-270.14996	665.90577	-701.91643	-173.08008	735.21828	-1065.81732	-187.26848	595.15249	-1064.11632	-288.35896	743.66768	-1092.85571	-292.99226	602.11489	-1083.48029	-167.93522	920.36782	-772.23248	-347.98189	935.25618	-856.71331	-155.97169	902.13248	-1031.23404	-347.36859	923.72312	-964.19525	-335.06181	1387.02963	-902.95837	-270.52706	1345.93808	-744.19399	-263.30167	1349.33162	-1068.51285	-204.87391	1325.28239	-882.81243	-205.95693	1325.75061	-926.19051	-243.60434	1105.83040	-667.85956	-273.84204	1001.96061	-723.82907	-270.40544	1020.85334	-654.68026	-215.61166	914.40516	-623.66867	-186.41033	797.81904	-611.57614	-229.07365	790.11592	-608.49513	-215.47817	1223.18002	-1117.89923	-237.42179	1011.20691	-1074.82995	-242.66515	1018.89140	-1135.80017	-193.89002	929.48387	-1176.27415	-167.70130	804.79143	-1180.70430	-203.47473	793.88626	-1181.42017	-233.87120	843.95896	-799.56323	-221.87950	832.25776	-999.15359	-228.37222	840.65107	-800.92762	-227.39945	822.34862	-971.49180	
6	0.05000000	-259.83772	471.98404	-727.54184	-255.22413	400.23831	-699.71076	-273.53463	92.68026	-719.29127	-339.91044	52.84486	-757.61180	-170.32314	44.05756	-686.87921	-128.08984	62.80723	-743.48790	-280.61211	457.24610	-1060.35410	-262.31598	402.78773	-1072.61792	-283.18483	91.99780	-1080.81857	-348.76962	55.43031	-1032.80337	-191.72344	40.08838	-1116.07190	-139.26611	62.27425	-1063.92264	-254.88541	454.43119	-843.83421	-264.51510	94.32301	-799.88897	-255.82585	443.78279	-955.99833	-264.10191	97.51826	-998.51003	-256.58579	290.45920	-690.43193	-329.48129	401.05754	-714.50772	-335.80097	282.70746	-708.38517	-350.33381	408.61645	-1085.99071	-343.18507	287.77800	-1099.03706	-164.73125	771.59145	-753.94330	-168.81643	660.67191	-739.74883	-218.91600	646.73104	-698.05130	-260.69743	783.76442	-698.80687	-270.14574	665.86432	-701.86864	-173.03299	735.36127	-1065.71855	-187.27121	595.17263	-1064.09675	-288.39364	743.67995	-1092.83413	-292.99221	602.11946	-1083.46719	-167.99569	920.41069	-772.20639	-348.07490	935.24214	-856.62841	-155.99374	902.17891	-1031.26256	-347.07633	923.70085	-964.02264	-335.09297	1387.02446	-902.87454	-270.63987	1345.79120	-744.04467	-263.37760	1349.32988	-1068.52818	-204.93070	1325.24930	-882.81363	-205.99597	1325.76302	-926.20381	-243.62437	1105.78307	-667.85619	-273.85985	1001.95381	-723.82874	-270.41342	1020.84124	-654.67923	-215.62481	914.40621	-623.71138	-186.46150	797.78980	-611.59933	-229.14635	790.12095	-608.43495	-215.56480	1223.19744	-1117.91325	-237.56185	1011.24197	-1074.84583	-242.79572	1018.88464	-1135.77418	-194.04115	929.45810	-1176.25655	-167.86094	804.69355	-1180.54632	-203.65128	793.91146	-1181.47469	-233.81910	843.97403	-799.50265	-221.81906	832.28639	-999.09330	-228.66965	840.63419	-801.13059	-227.08240	822.30094	-971.72127	
